<?xml version="1.0" encoding="UTF-8" standalone="no"?>
<!-- Created with Inkscape (http://www.inkscape.org/) -->

<svg
   xmlns:dc="http://purl.org/dc/elements/1.1/"
   xmlns:cc="http://creativecommons.org/ns#"
   xmlns:rdf="http://www.w3.org/1999/02/22-rdf-syntax-ns#"
   xmlns:svg="http://www.w3.org/2000/svg"
   xmlns="http://www.w3.org/2000/svg"
   xmlns:sodipodi="http://sodipodi.sourceforge.net/DTD/sodipodi-0.dtd"
   xmlns:inkscape="http://www.inkscape.org/namespaces/inkscape"
   width="97.898598"
   height="105.73814"
   id="svg2"
   version="1.1"
   inkscape:version="0.48.0 r9654"
   inkscape:export-filename="/Volumes/aasa/www/seattlesoundbytes.com/site/img/members/ambar-arrow.png"
   inkscape:export-xdpi="27.58"
   inkscape:export-ydpi="27.58"
   sodipodi:docname="ambar.svg">
  <defs
     id="defs4" />
  <sodipodi:namedview
     id="base"
     pagecolor="#ffffff"
     bordercolor="#666666"
     borderopacity="1.0"
     inkscape:pageopacity="0.0"
     inkscape:pageshadow="2"
     inkscape:zoom="0.98994949"
     inkscape:cx="31.730621"
     inkscape:cy="97.125801"
     inkscape:document-units="px"
     inkscape:current-layer="layer1"
     showgrid="false"
     fit-margin-top="0"
     fit-margin-left="0"
     fit-margin-right="0"
     fit-margin-bottom="0"
     inkscape:window-width="1143"
     inkscape:window-height="754"
     inkscape:window-x="4"
     inkscape:window-y="0"
     inkscape:window-maximized="0" />
  <metadata
     id="metadata7">
    <rdf:RDF>
      <cc:Work
         rdf:about="">
        <dc:format>image/svg+xml</dc:format>
        <dc:type
           rdf:resource="http://purl.org/dc/dcmitype/StillImage" />
        <dc:title></dc:title>
      </cc:Work>
    </rdf:RDF>
  </metadata>
  <g
     inkscape:label="Layer 1"
     inkscape:groupmode="layer"
     id="layer1"
     transform="translate(-119.9285,-50.546812)">
    <path
       style="fill:#000000"
       d="m 199.796,58.625716 c 7.50033,1.52004 9.09127,-11.864323 15.40473,-7.014598 11.19634,8.600552 -15.17863,68.805182 -45.53714,84.310442 -12.55267,6.41113 -17.69159,10.64906 -16.45358,13.56876 4.02313,9.48788 -2.68879,9.00173 -16.88432,-1.22295 -8.26512,-5.95315 -15.59911,-11.16897 -16.29777,-11.59071 -0.69866,-0.42174 2.3607,-8.30755 6.79855,-17.52401 4.43785,-9.21646 9.13522,-19.37062 10.4386,-22.56481 2.36978,-5.8076 2.36978,-5.8076 5.00855,0 1.45132,3.19419 2.74025,9.40107 2.86427,13.79307 0.12418,4.392 1.74117,7.98546 3.59358,7.98546 13.40285,0 33.92015,-24.123098 37.11252,-38.568238 1.05672,-4.78153 2.28715,-14.949353 4.93689,-17.474083 2.64974,-2.52473 1.51479,-5.218373 9.01512,-3.698333 z m -8.42278,21.064194 c -0.15845,9.997954 -20.72215,36.21342 -32.23056,40.56502 -13.78263,5.21155 -16.98793,4.94653 -16.98793,-1.40459 0,-10.23108 -4.29657,-9.07516 -10.13524,2.72671 -6.63302,13.40755 -6.3255,14.38391 7.29503,23.161 l 9.80052,6.31547 -1.07363,-6.59238 c -0.83176,-5.10731 0.6975,-6.84251 6.78867,-7.70272 16.44986,-2.32309 53.30286,-46.785708 56.99491,-67.299488 2.42794,-13.490147 0.0298,-4.007115 -12.59097,-4.007115 -7.56011,0 -7.81683,11.463793 -7.8608,14.238093 z"
       id="path3057"
       inkscape:connector-curvature="0"
       sodipodi:nodetypes="ssssssssscsszsssssscsssss" />
  </g>
</svg>
