<?xml version="1.0" encoding="UTF-8" standalone="no"?>
<!-- Created with Inkscape (http://www.inkscape.org/) -->

<svg
   xmlns:dc="http://purl.org/dc/elements/1.1/"
   xmlns:cc="http://creativecommons.org/ns#"
   xmlns:rdf="http://www.w3.org/1999/02/22-rdf-syntax-ns#"
   xmlns:svg="http://www.w3.org/2000/svg"
   xmlns="http://www.w3.org/2000/svg"
   xmlns:sodipodi="http://sodipodi.sourceforge.net/DTD/sodipodi-0.dtd"
   xmlns:inkscape="http://www.inkscape.org/namespaces/inkscape"
   width="80.63472"
   height="162.31606"
   id="svg2"
   version="1.1"
   inkscape:version="0.48.0 r9654"
   inkscape:export-filename="/Volumes/aasa/www/seattlesoundbytes.com/site/img/members/ambar-arrow.png"
   inkscape:export-xdpi="27.58"
   inkscape:export-ydpi="27.58"
   sodipodi:docname="jeremie.svg">
  <defs
     id="defs4" />
  <sodipodi:namedview
     id="base"
     pagecolor="#ffffff"
     bordercolor="#666666"
     borderopacity="1.0"
     inkscape:pageopacity="0.0"
     inkscape:pageshadow="2"
     inkscape:zoom="2.8"
     inkscape:cx="49.52458"
     inkscape:cy="69.056588"
     inkscape:document-units="px"
     inkscape:current-layer="layer1"
     showgrid="false"
     fit-margin-top="0"
     fit-margin-left="0"
     fit-margin-right="0"
     fit-margin-bottom="0"
     inkscape:window-width="1276"
     inkscape:window-height="756"
     inkscape:window-x="4"
     inkscape:window-y="0"
     inkscape:window-maximized="0" />
  <metadata
     id="metadata7">
    <rdf:RDF>
      <cc:Work
         rdf:about="">
        <dc:format>image/svg+xml</dc:format>
        <dc:type
           rdf:resource="http://purl.org/dc/dcmitype/StillImage" />
        <dc:title></dc:title>
      </cc:Work>
    </rdf:RDF>
  </metadata>
  <g
     inkscape:label="Layer 1"
     inkscape:groupmode="layer"
     id="layer1"
     transform="translate(-119.9285,-2.7893559)">
    <path
       style="fill:#000000"
       d="m 173.72457,7.9114301 c 7.50033,1.52004 -1.26587,-8.65004129 5.04759,-3.8003123 5.59817,4.3002759 24.03565,40.7872862 21.5645,70.2802412 -2.47116,29.492951 -15.49382,53.777571 -30.67307,61.530201 -12.55267,6.41113 -17.69159,10.64906 -16.45358,13.56876 4.02313,9.48788 15.5255,30.4303 -16.88432,-1.22295 -7.28706,-7.11695 -15.59911,-11.16897 -16.29777,-11.59071 -0.69866,-0.42174 2.3607,-8.30755 6.79855,-17.52401 4.43785,-9.21646 9.13522,-19.37062 10.4386,-22.56481 2.36978,-5.8076 2.36978,-5.8076 5.00855,0 1.45132,3.19419 2.74025,9.40107 2.86427,13.79307 0.12418,4.392 1.74117,7.98546 3.59358,7.98546 13.40285,0 29.63083,-36.454903 31.75538,-46.068238 2.12455,-9.613335 -27.71285,-57.09221 -25.06311,-59.61694 2.64974,-2.52473 10.8005,-6.2898019 18.30083,-4.7697619 z m 11.57722,62.8499079 c -1.92196,6.144468 -14.65072,45.141992 -26.15913,49.493592 -13.78263,5.21155 -16.98793,4.94653 -16.98793,-1.40459 0,-10.23108 -4.29657,-9.07516 -10.13524,2.72671 -6.63302,13.40755 -6.3255,14.38391 7.29503,23.161 l 12.30052,11.67261 -3.57363,-11.94952 c -1.48264,-4.95764 1.41633,-6.69184 8.57438,-7.70272 7.15805,-1.01088 29.13994,-19.19726 35.96021,-42.721092 6.82028,-23.523837 -3.61417,-54.383984 -5.03674,-66.364111 -1.79158,-15.087803 -9.97019,-13.649972 -22.59096,-13.649972 -7.56011,0 22.27544,50.593626 20.35349,56.738093 z"
       id="path3057"
       inkscape:connector-curvature="0"
       sodipodi:nodetypes="sszssssssscszzszsssscszzssz" />
  </g>
</svg>
