<?xml version="1.0" encoding="UTF-8" standalone="no"?>
<!-- Created with Inkscape (http://www.inkscape.org/) -->

<svg
   xmlns:dc="http://purl.org/dc/elements/1.1/"
   xmlns:cc="http://creativecommons.org/ns#"
   xmlns:rdf="http://www.w3.org/1999/02/22-rdf-syntax-ns#"
   xmlns:svg="http://www.w3.org/2000/svg"
   xmlns="http://www.w3.org/2000/svg"
   xmlns:sodipodi="http://sodipodi.sourceforge.net/DTD/sodipodi-0.dtd"
   xmlns:inkscape="http://www.inkscape.org/namespaces/inkscape"
   width="78.95179"
   height="160.41766"
   id="svg2"
   version="1.1"
   inkscape:version="0.48.0 r9654"
   inkscape:export-filename="/Volumes/aasa/www/seattlesoundbytes.com/site/img/members/amanda-arrow.png"
   inkscape:export-xdpi="27.58"
   inkscape:export-ydpi="27.58"
   sodipodi:docname="amanda-arrow.svg">
  <defs
     id="defs4" />
  <sodipodi:namedview
     id="base"
     pagecolor="#ffffff"
     bordercolor="#666666"
     borderopacity="1.0"
     inkscape:pageopacity="0.0"
     inkscape:pageshadow="2"
     inkscape:zoom="2.8"
     inkscape:cx="-15.746019"
     inkscape:cy="71.448177"
     inkscape:document-units="px"
     inkscape:current-layer="layer1"
     showgrid="false"
     fit-margin-top="0"
     fit-margin-left="0"
     fit-margin-right="0"
     fit-margin-bottom="0"
     inkscape:window-width="1143"
     inkscape:window-height="754"
     inkscape:window-x="4"
     inkscape:window-y="0"
     inkscape:window-maximized="0" />
  <metadata
     id="metadata7">
    <rdf:RDF>
      <cc:Work
         rdf:about="">
        <dc:format>image/svg+xml</dc:format>
        <dc:type
           rdf:resource="http://purl.org/dc/dcmitype/StillImage" />
        <dc:title></dc:title>
      </cc:Work>
    </rdf:RDF>
  </metadata>
  <g
     inkscape:label="Layer 1"
     inkscape:groupmode="layer"
     id="layer1"
     transform="translate(-138.83372,1.2389041)">
    <path
       style="fill:#000000"
       d="m 165.4596,6.8400016 c -7.50033,1.52004 -9.09127,-11.864327 -15.40473,-7.01459797 C 144.4567,4.1256796 137.09064,34.273404 139.20466,65.284216 c 2.11401,31.010813 24.43732,58.229214 30.31592,66.351634 5.8786,8.12242 7.69485,5.47256 13.59644,10.35447 -17.12775,27.11807 4.11736,16.50173 18.31289,6.27705 8.26512,-5.95315 15.59911,-11.16897 16.29777,-11.59071 0.69866,-0.42174 -5.13215,-7.4314 -6.79855,-17.52401 -1.58071,-9.5736 -2.70665,-14.01348 -4.01003,-17.20767 -2.36978,-5.807597 -4.51264,-3.66474 -7.15141,2.14286 -1.45132,3.19419 -6.46664,14.27853 -10.74356,14.27853 -4.27692,0 -21.59164,-27.97929 -24.59894,-48.67285 -3.0073,-20.69356 -1.18714,-34.25048 0.7007,-40.609673 1.88784,-6.359193 11.99857,-16.020782 9.34883,-18.545512 -2.64974,-2.5247304 -1.51479,-5.2183734 -9.01512,-3.6983334 z m -7.62828,63.8340904 c 3.43679,19.959753 14.19211,37.814788 21.85305,47.080838 7.66094,9.26605 12.31046,6.32353 15.9165,1.09541 6.07143,-8.80251 6.28954,-5.39253 10.13524,2.72671 6.03927,12.75041 6.3255,14.38391 -7.29503,23.161 l -12.65766,7.3869 6.78792,-13.3781 c 2.34139,-4.61457 -0.69751,-2.19965 -6.78868,-3.05986 -8.22493,-1.16155 -35.74707,-39.018685 -40.60306,-65.935377 -4.85599,-26.916692 2.62795,-46.081098 4.32244,-56.364109 2.9292,-17.7758614 3.54163,-0.435687 16.1624,-0.435687 -6.36846,9.642857 -11.26992,37.762521 -7.83312,57.722275 z"
       id="path3057"
       inkscape:connector-curvature="0"
       sodipodi:nodetypes="ssszcssssszzzzszzssscsszscz" />
  </g>
</svg>
