<?xml version="1.0" encoding="UTF-8" standalone="no"?>
<!-- Created with Inkscape (http://www.inkscape.org/) -->

<svg
   xmlns:dc="http://purl.org/dc/elements/1.1/"
   xmlns:cc="http://creativecommons.org/ns#"
   xmlns:rdf="http://www.w3.org/1999/02/22-rdf-syntax-ns#"
   xmlns:svg="http://www.w3.org/2000/svg"
   xmlns="http://www.w3.org/2000/svg"
   xmlns:sodipodi="http://sodipodi.sourceforge.net/DTD/sodipodi-0.dtd"
   xmlns:inkscape="http://www.inkscape.org/namespaces/inkscape"
   width="94.431503"
   height="160.41766"
   id="svg2"
   version="1.1"
   inkscape:version="0.48.0 r9654"
   inkscape:export-filename="/Volumes/aasa/www/seattlesoundbytes.com/site/img/members/charlie-arrow.png"
   inkscape:export-xdpi="27.58"
   inkscape:export-ydpi="27.58"
   sodipodi:docname="charlie-arrow.svg">
  <defs
     id="defs4" />
  <sodipodi:namedview
     id="base"
     pagecolor="#ffffff"
     bordercolor="#666666"
     borderopacity="1.0"
     inkscape:pageopacity="0.0"
     inkscape:pageshadow="2"
     inkscape:zoom="2.8"
     inkscape:cx="-0.26629844"
     inkscape:cy="104.1014"
     inkscape:document-units="px"
     inkscape:current-layer="layer1"
     showgrid="false"
     fit-margin-top="0"
     fit-margin-left="0"
     fit-margin-right="0"
     fit-margin-bottom="0"
     inkscape:window-width="1143"
     inkscape:window-height="754"
     inkscape:window-x="4"
     inkscape:window-y="0"
     inkscape:window-maximized="0" />
  <metadata
     id="metadata7">
    <rdf:RDF>
      <cc:Work
         rdf:about="">
        <dc:format>image/svg+xml</dc:format>
        <dc:type
           rdf:resource="http://purl.org/dc/dcmitype/StillImage" />
        <dc:title></dc:title>
      </cc:Work>
    </rdf:RDF>
  </metadata>
  <g
     inkscape:label="Layer 1"
     inkscape:groupmode="layer"
     id="layer1"
     transform="translate(-123.354,1.2389041)">
    <path
       style="fill:#000000"
       d="m 165.4596,6.8400016 c -7.50033,1.52004 -9.09127,-11.864327 -15.40473,-7.01459797 -5.59817,4.30027597 -28.67852,9.44800037 -26.5645,40.45881237 2.11401,31.010813 38.00875,83.229214 43.88735,91.351634 5.8786,8.12242 9.83771,5.47256 15.7393,10.35447 -17.12775,27.11807 4.11736,16.50173 18.31289,6.27705 8.26512,-5.95315 15.59911,-11.16897 16.29777,-11.59071 0.69866,-0.42174 -5.13215,-7.4314 -6.79855,-17.52401 -1.58071,-9.5736 -2.70665,-14.01348 -4.01003,-17.20767 -2.36978,-5.807597 -4.51264,-3.66474 -7.15141,2.14286 -1.45132,3.19419 -6.46664,14.27853 -10.74356,14.27853 -4.27692,0 -29.09164,-33.336433 -32.09894,-54.029993 -3.0073,-20.69356 6.31286,-28.893337 8.2007,-35.25253 1.88784,-6.359193 11.99857,-16.020782 9.34883,-18.545512 -2.64974,-2.5247304 -1.51479,-5.2183734 -9.01512,-3.6983334 z M 152.47418,66.388378 c 3.43679,19.959753 19.54925,42.100502 27.21019,51.366552 7.66094,9.26605 12.31046,6.32353 15.9165,1.09541 6.07143,-8.80251 6.28954,-5.39253 10.13524,2.72671 6.03927,12.75041 6.3255,14.38391 -7.29503,23.161 l -12.65766,7.3869 6.78792,-13.3781 c 2.34139,-4.61457 -0.65297,-3.50181 -6.78868,-3.05986 -18.58207,1.33845 -51.46135,-61.161542 -58.10306,-92.006805 -6.6417,-30.845264 15.48509,-20.366813 17.17958,-30.649824 2.9292,-17.7758613 8.18449,-0.07854 20.80526,-0.07854 -11.36846,3.214286 -16.62706,33.476807 -13.19026,53.436557 z"
       id="path3057"
       inkscape:connector-curvature="0"
       sodipodi:nodetypes="ssszcssssszzzzszzssscsszscz" />
  </g>
</svg>
